<svg width="32" height="28" viewBox="0 0 32 28" fill="none" xmlns="http://www.w3.org/2000/svg">
<path d="M11.2917 6.2496L11.2939 4.47552C11.2951 3.28813 11.7676 2.14977 12.6077 1.31058C13.4477 0.471383 14.5865 -5.93697e-07 15.7739 0C18.2424 0 20.2427 2.00032 20.2427 4.4688V6.24512C23.8502 7.32023 26.9508 9.65672 28.9785 12.8281C31.0063 15.9995 31.8261 19.7944 31.2882 23.52H0.248476C-0.288501 19.7957 0.531164 16.0024 2.55797 12.832C4.58478 9.66166 7.68367 7.32549 11.2894 6.2496H11.2917ZM1.20944 25.76H30.3294C30.6265 25.76 30.9114 25.878 31.1214 26.088C31.3314 26.2981 31.4494 26.583 31.4494 26.88C31.4494 27.177 31.3314 27.4619 31.1214 27.672C30.9114 27.882 30.6265 28 30.3294 28H1.20944C0.912393 28 0.627517 27.882 0.417476 27.672C0.207435 27.4619 0.0894357 27.177 0.0894357 26.88C0.0894357 26.583 0.207435 26.2981 0.417476 26.088C0.627517 25.878 0.912393 25.76 1.20944 25.76ZM2.32944 21.28H29.2094C29.2094 19.515 28.8618 17.7673 28.1864 16.1367C27.511 14.5061 26.521 13.0245 25.2729 11.7765C24.0249 10.5285 22.5433 9.53848 20.9127 8.86306C19.2821 8.18764 17.5344 7.84 15.7694 7.84C14.0045 7.84 12.2568 8.18764 10.6262 8.86306C8.99555 9.53848 7.51394 10.5285 6.26592 11.7765C5.0179 13.0245 4.02792 14.5061 3.35249 16.1367C2.67707 17.7673 2.32944 19.515 2.32944 21.28ZM18.0027 5.6V4.4688C18.0027 3.87769 17.7679 3.31078 17.3499 2.8928C16.9319 2.47482 16.365 2.24 15.7739 2.24C15.1802 2.24 14.6108 2.47569 14.1908 2.89529C13.7708 3.31489 13.5345 3.88406 13.5339 4.47776V5.6H18.0027Z" fill="#313131"/>
</svg>
