<svg width="13" height="14" viewBox="0 0 13 14" fill="none" xmlns="http://www.w3.org/2000/svg">
<path d="M7.34988 3.38303L9.74427 5.77743L5.41012 10.1116L3.01572 7.71719L7.34988 3.38303ZM5.75109 10.8011L10.4338 6.1184C10.5298 6.02242 10.5778 5.90876 10.5778 5.77743C10.5778 5.64609 10.5298 5.53243 10.4338 5.43645L7.69085 2.69351C7.59993 2.60258 7.48627 2.55712 7.34988 2.55712C7.21349 2.55712 7.09983 2.60258 7.00891 2.69351L2.3262 7.37622C2.23022 7.47219 2.18223 7.58585 2.18223 7.71719C2.18223 7.84853 2.23022 7.96218 2.3262 8.05816L5.06914 10.8011C5.16007 10.892 5.27373 10.9375 5.41012 10.9375C5.54651 10.9375 5.66016 10.892 5.75109 10.8011ZM12.4872 5.97443L5.6147 12.8545C5.4278 13.0414 5.19922 13.1349 4.92897 13.1349C4.65871 13.1349 4.43013 13.0414 4.24323 12.8545L3.2885 11.8998C3.57138 11.6169 3.71283 11.2734 3.71283 10.8693C3.71283 10.4652 3.57138 10.1217 3.2885 9.8388C3.00562 9.55592 2.66212 9.41448 2.258 9.41448C1.85389 9.41448 1.51039 9.55592 1.22751 9.8388L0.280356 8.88408C0.0934521 8.69717 0 8.46859 0 8.19834C0 7.92809 0.0934521 7.69951 0.280356 7.5126L7.15287 0.647666C7.33978 0.460762 7.56836 0.36731 7.83861 0.36731C8.10886 0.36731 8.33744 0.460762 8.52434 0.647666L9.47149 1.59482C9.18861 1.8777 9.04717 2.2212 9.04717 2.62531C9.04717 3.02943 9.18861 3.37293 9.47149 3.65581C9.75438 3.93869 10.0979 4.08014 10.502 4.08014C10.9061 4.08014 11.2496 3.93869 11.5325 3.65581L12.4872 4.60296C12.6741 4.78987 12.7676 5.01844 12.7676 5.2887C12.7676 5.55895 12.6741 5.78753 12.4872 5.97443Z" fill="white"/>
</svg>
