<svg width="11" height="12" viewBox="0 0 11 12" fill="none" xmlns="http://www.w3.org/2000/svg">
<path d="M5.47182 0.767578C2.4501 0.767578 0 3.21768 0 6.2394C0 9.26111 2.4501 11.7112 5.47182 11.7112C8.49353 11.7112 10.9436 9.26111 10.9436 6.2394C10.9436 3.21768 8.49353 0.767578 5.47182 0.767578ZM7.62757 7.92125L7.27825 8.39759C7.27065 8.40796 7.26108 8.41673 7.25008 8.42339C7.23909 8.43005 7.22688 8.43447 7.21417 8.4364C7.20146 8.43833 7.18849 8.43773 7.17601 8.43463C7.16353 8.43154 7.15179 8.426 7.14145 8.41835L5.12128 6.94536C5.10869 6.93632 5.09846 6.92439 5.09145 6.91058C5.08444 6.89676 5.08084 6.88146 5.08097 6.86597V3.50349C5.08097 3.44975 5.12494 3.40578 5.17868 3.40578H5.76617C5.81991 3.40578 5.86388 3.44975 5.86388 3.50349V6.52642L7.60558 7.78567C7.64955 7.81621 7.65932 7.87728 7.62757 7.92125Z" fill="white"/>
</svg>
