<svg width="11" height="14" viewBox="0 0 11 14" fill="none" xmlns="http://www.w3.org/2000/svg">
<path d="M1.09436 13.1349C1.09436 13.1349 0 13.1349 0 12.0406C0 10.9462 1.09436 7.66311 5.47182 7.66311C9.84927 7.66311 10.9436 10.9462 10.9436 12.0406C10.9436 13.1349 9.84927 13.1349 9.84927 13.1349H1.09436ZM5.47182 6.56874C6.34255 6.56874 7.17761 6.22285 7.79331 5.60715C8.40901 4.99145 8.75491 4.15638 8.75491 3.28565C8.75491 2.41492 8.40901 1.57986 7.79331 0.964158C7.17761 0.34846 6.34255 0.00256348 5.47182 0.00256348C4.60109 0.00256348 3.76602 0.34846 3.15032 0.964158C2.53462 1.57986 2.18873 2.41492 2.18873 3.28565C2.18873 4.15638 2.53462 4.99145 3.15032 5.60715C3.76602 6.22285 4.60109 6.56874 5.47182 6.56874Z" fill="white"/>
</svg>
