<svg width="14" height="15" viewBox="0 0 14 15" fill="none" xmlns="http://www.w3.org/2000/svg">
<path d="M8.05935 3.70673L10.6849 6.33225L5.93234 11.0848L3.30682 8.45925L8.05935 3.70673ZM6.30623 11.8409L11.4409 6.70613C11.5462 6.60089 11.5988 6.47626 11.5988 6.33225C11.5988 6.18823 11.5462 6.0636 11.4409 5.95836L8.43323 2.95064C8.33353 2.85094 8.2089 2.80109 8.05935 2.80109C7.90979 2.80109 7.78516 2.85094 7.68546 2.95064L2.55074 8.08536C2.4455 8.1906 2.39288 8.31523 2.39288 8.45925C2.39288 8.60327 2.4455 8.72789 2.55074 8.83314L5.55846 11.8409C5.65816 11.9406 5.78279 11.9904 5.93234 11.9904C6.0819 11.9904 6.20653 11.9406 6.30623 11.8409ZM13.6926 6.54827L6.15668 14.0925C5.95173 14.2974 5.70109 14.3999 5.40475 14.3999C5.10841 14.3999 4.85776 14.2974 4.65282 14.0925L3.60593 13.0456C3.91612 12.7354 4.07122 12.3588 4.07122 11.9156C4.07122 11.4725 3.91612 11.0958 3.60593 10.7857C3.29575 10.4755 2.91909 10.3204 2.47596 10.3204C2.03284 10.3204 1.65618 10.4755 1.34599 10.7857L0.307418 9.73877C0.102473 9.53383 0 9.28319 0 8.98685C0 8.69051 0.102473 8.43986 0.307418 8.23492L7.84332 0.707321C8.04827 0.502375 8.29891 0.399902 8.59525 0.399902C8.89159 0.399902 9.14224 0.502375 9.34718 0.707321L10.3858 1.7459C10.0756 2.05608 9.92048 2.43274 9.92048 2.87587C9.92048 3.31899 10.0756 3.69565 10.3858 4.00584C10.6959 4.31603 11.0726 4.47112 11.5157 4.47112C11.9589 4.47112 12.3355 4.31603 12.6457 4.00584L13.6926 5.04441C13.8975 5.24936 14 5.5 14 5.79634C14 6.09268 13.8975 6.34332 13.6926 6.54827Z" fill="#270F33"/>
</svg>
