<svg width="26" height="18" viewBox="0 0 26 18" fill="none" xmlns="http://www.w3.org/2000/svg">
<path d="M25.515 15.75V2.25C25.515 1.005 24.51 0 23.265 0H2.25C1.005 0 0 1.005 0 2.25V15.75C0 16.995 1.005 18 2.25 18H23.265C24.51 18 25.515 16.995 25.515 15.75ZM23.55 2.085C24.045 2.58 23.775 3.09 23.505 3.345L17.415 8.925L23.265 15.015C23.445 15.225 23.565 15.555 23.355 15.78C23.16 16.02 22.71 16.005 22.515 15.855L15.96 10.26L12.75 13.185L9.555 10.26L3 15.855C2.805 16.005 2.355 16.02 2.16 15.78C1.95 15.555 2.07 15.225 2.25 15.015L8.1 8.925L2.01 3.345C1.74 3.09 1.47 2.58 1.965 2.085C2.46 1.59 2.97 1.83 3.39 2.19L12.75 9.75L22.125 2.19C22.545 1.83 23.055 1.59 23.55 2.085Z" fill="white"/>
</svg>
