<svg width="30" height="29" viewBox="0 0 30 29" fill="none" xmlns="http://www.w3.org/2000/svg">
<path d="M0.649902 14.4977C0.650719 17.9506 1.88309 21.29 4.1255 23.9157C6.36791 26.5414 9.47332 28.2811 12.8836 28.8223V18.6882H9.2049V14.4977H12.8879V11.3077C12.8066 10.5611 12.8906 9.80572 13.1341 9.09525C13.3776 8.38478 13.7746 7.73664 14.2968 7.19686C14.819 6.65708 15.4536 6.2389 16.1557 5.97203C16.8577 5.70516 17.6098 5.59614 18.3588 5.65271C19.4463 5.67011 20.5338 5.76726 21.6068 5.94271V9.50826H19.774C19.4625 9.46746 19.1458 9.49718 18.8473 9.59523C18.5488 9.69328 18.2762 9.85715 18.0496 10.0747C17.8229 10.2923 17.6481 10.558 17.538 10.8523C17.4279 11.1465 17.3853 11.4617 17.4134 11.7746V14.4977H21.4313L20.789 18.6897H17.4134V28.8223C20.1504 28.3897 22.7062 27.1819 24.7781 25.3419C26.8501 23.5019 28.3514 21.1068 29.1043 18.44C29.8573 15.7732 29.8303 12.9466 29.0267 10.2946C28.223 7.64273 26.6763 5.27662 24.5696 3.47646C22.463 1.67631 19.8846 0.517488 17.1398 0.137203C14.395 -0.243082 11.5987 0.171095 9.08202 1.3307C6.5653 2.4903 4.43355 4.34676 2.93917 6.68029C1.44478 9.01382 0.650342 11.7267 0.649902 14.4977Z" fill="white"/>
</svg>
