<svg width="20" height="15" viewBox="0 0 20 15" fill="none" xmlns="http://www.w3.org/2000/svg">
<path d="M12.071 13.874C11.8293 13.6323 11.7133 13.3403 11.723 12.9979C11.7335 12.6555 11.8595 12.3635 12.1012 12.1219L15.5147 8.70833H2.04183C1.69947 8.70833 1.41229 8.59233 1.18029 8.36033C0.949094 8.12913 0.833496 7.84235 0.833496 7.49999C0.833496 7.15763 0.949094 6.87045 1.18029 6.63845C1.41229 6.40726 1.69947 6.29166 2.04183 6.29166H15.5147L12.071 2.84791C11.8293 2.60624 11.7085 2.31906 11.7085 1.98637C11.7085 1.65448 11.8293 1.3677 12.071 1.12603C12.3127 0.884368 12.5998 0.763535 12.9325 0.763535C13.2644 0.763535 13.5512 0.884368 13.7929 1.12603L19.321 6.65416C19.4418 6.77499 19.5276 6.9059 19.5784 7.04687C19.6283 7.18784 19.6533 7.33888 19.6533 7.49999C19.6533 7.6611 19.6283 7.81215 19.5784 7.95312C19.5276 8.09409 19.4418 8.22499 19.321 8.34583L13.7627 13.9042C13.5411 14.1257 13.2644 14.2365 12.9325 14.2365C12.5998 14.2365 12.3127 14.1156 12.071 13.874Z" fill="black"/>
</svg>
