<svg width="31" height="30" viewBox="0 0 31 30" fill="none" xmlns="http://www.w3.org/2000/svg">
<path d="M0.0878906 5C0.0878906 3.67392 0.614675 2.40215 1.55236 1.46447C2.49004 0.526784 3.76181 0 5.08789 0H25.0879C26.414 0 27.6857 0.526784 28.6234 1.46447C29.5611 2.40215 30.0879 3.67392 30.0879 5V25C30.0879 26.3261 29.5611 27.5979 28.6234 28.5355C27.6857 29.4732 26.414 30 25.0879 30H5.08789C3.76181 30 2.49004 29.4732 1.55236 28.5355C0.614675 27.5979 0.0878906 26.3261 0.0878906 25V5ZM16.7546 26.6667H25.0879C25.5299 26.6667 25.9538 26.4911 26.2664 26.1785C26.579 25.866 26.7546 25.442 26.7546 25V16.6667H16.7546V26.6667ZM13.4212 16.6667H3.42122V25C3.42122 25.442 3.59682 25.866 3.90938 26.1785C4.22194 26.4911 4.64586 26.6667 5.08789 26.6667H13.4212V16.6667ZM16.7546 13.3333H26.7546V5C26.7546 4.55797 26.579 4.13405 26.2664 3.82149C25.9538 3.50893 25.5299 3.33333 25.0879 3.33333H16.7546V13.3333ZM13.4212 3.33333H5.08789C4.64586 3.33333 4.22194 3.50893 3.90938 3.82149C3.59682 4.13405 3.42122 4.55797 3.42122 5V13.3333H13.4212V3.33333Z" fill="#313131"/>
</svg>
