<svg width="30" height="31" viewBox="0 0 30 31" fill="none" xmlns="http://www.w3.org/2000/svg">
<path d="M16.2135 20.3125L20.0052 16.5208C20.2969 16.2291 20.4427 15.8888 20.4427 15.5C20.4427 15.1111 20.2969 14.7708 20.0052 14.4791L16.1771 10.651C15.9097 10.3836 15.5758 10.2558 15.1752 10.2675C14.7737 10.2801 14.4392 10.4201 14.1719 10.6875C13.9045 10.9548 13.7708 11.2951 13.7708 11.7083C13.7708 12.1215 13.9045 12.4618 14.1719 12.7291L15.4844 14.0416H10.7813C10.3681 14.0416 10.0278 14.1811 9.76042 14.4602C9.49306 14.7402 9.35938 15.0868 9.35938 15.5C9.35938 15.9132 9.49938 16.2593 9.77938 16.5383C10.0584 16.8183 10.4045 16.9583 10.8177 16.9583H15.4844L14.1354 18.3073C13.8681 18.5746 13.7402 18.9091 13.7519 19.3106C13.7645 19.7111 13.9045 20.0451 14.1719 20.3125C14.4392 20.5798 14.7795 20.7135 15.1927 20.7135C15.6059 20.7135 15.9462 20.5798 16.2135 20.3125ZM15.1927 30.0833C13.1753 30.0833 11.2795 29.7002 9.50521 28.9341C7.7309 28.169 6.1875 27.1302 4.875 25.8177C3.5625 24.5052 2.52368 22.9618 1.75854 21.1875C0.992431 19.4132 0.609375 17.5173 0.609375 15.5C0.609375 13.4826 0.992431 11.5868 1.75854 9.81246C2.52368 8.03815 3.5625 6.49475 4.875 5.18225C6.1875 3.86975 7.7309 2.83045 9.50521 2.06433C11.2795 1.2992 13.1753 0.916626 15.1927 0.916626C17.2101 0.916626 19.1059 1.2992 20.8802 2.06433C22.6545 2.83045 24.1979 3.86975 25.5104 5.18225C26.8229 6.49475 27.8617 8.03815 28.6269 9.81246C29.393 11.5868 29.776 13.4826 29.776 15.5C29.776 17.5173 29.393 19.4132 28.6269 21.1875C27.8617 22.9618 26.8229 24.5052 25.5104 25.8177C24.1979 27.1302 22.6545 28.169 20.8802 28.9341C19.1059 29.7002 17.2101 30.0833 15.1927 30.0833ZM15.1927 27.1666C18.4253 27.1666 21.1782 26.0306 23.4513 23.7585C25.7233 21.4854 26.8594 18.7326 26.8594 15.5C26.8594 12.2673 25.7233 9.51447 23.4513 7.24142C21.1782 4.96933 18.4253 3.83329 15.1927 3.83329C11.9601 3.83329 9.20771 4.96933 6.93563 7.24142C4.66257 9.51447 3.52604 12.2673 3.52604 15.5C3.52604 18.7326 4.66257 21.4854 6.93563 23.7585C9.20771 26.0306 11.9601 27.1666 15.1927 27.1666Z" fill="#353434"/>
</svg>
