<svg width="30" height="31" viewBox="0 0 30 31" fill="none" xmlns="http://www.w3.org/2000/svg">
<path d="M13.7865 10.6875L9.99479 14.4792C9.70313 14.7709 9.55729 15.1112 9.55729 15.5C9.55729 15.8889 9.70312 16.2292 9.99479 16.5209L13.8229 20.349C14.0903 20.6164 14.4242 20.7442 14.8248 20.7325C15.2263 20.7199 15.5608 20.5799 15.8281 20.3125C16.0955 20.0452 16.2292 19.7049 16.2292 19.2917C16.2292 18.8785 16.0955 18.5382 15.8281 18.2709L14.5156 16.9584H19.2187C19.6319 16.9584 19.9722 16.8189 20.2396 16.5398C20.5069 16.2598 20.6406 15.9132 20.6406 15.5C20.6406 15.0868 20.5006 14.7407 20.2206 14.4617C19.9416 14.1817 19.5955 14.0417 19.1823 14.0417L14.5156 14.0417L15.8646 12.6927C16.1319 12.4254 16.2598 12.0909 16.2481 11.6894C16.2355 11.2889 16.0955 10.9549 15.8281 10.6875C15.5608 10.4202 15.2205 10.2865 14.8073 10.2865C14.3941 10.2865 14.0538 10.4202 13.7865 10.6875ZM14.8073 0.916706C16.8247 0.916706 18.7205 1.29976 20.4948 2.06587C22.2691 2.83101 23.8125 3.86983 25.125 5.18233C26.4375 6.49483 27.4763 8.03823 28.2415 9.81254C29.0076 11.5868 29.3906 13.4827 29.3906 15.5C29.3906 17.5174 29.0076 19.4132 28.2415 21.1875C27.4763 22.9618 26.4375 24.5052 25.125 25.8177C23.8125 27.1302 22.2691 28.1696 20.4948 28.9357C18.7205 29.7008 16.8247 30.0834 14.8073 30.0834C12.7899 30.0834 10.8941 29.7008 9.11979 28.9357C7.34549 28.1696 5.80208 27.1302 4.48958 25.8177C3.17708 24.5052 2.13826 22.9618 1.37313 21.1875C0.607014 19.4132 0.223957 17.5174 0.223957 15.5C0.223957 13.4827 0.607014 11.5868 1.37313 9.81254C2.13826 8.03823 3.17708 6.49483 4.48958 5.18233C5.80208 3.86983 7.34549 2.83101 9.11979 2.06587C10.8941 1.29976 12.7899 0.916706 14.8073 0.916706ZM14.8073 3.83337C11.5747 3.83337 8.8218 4.96942 6.54875 7.2415C4.27667 9.51455 3.14063 12.2674 3.14063 15.5C3.14062 18.7327 4.27667 21.4855 6.54875 23.7586C8.8218 26.0307 11.5747 27.1667 14.8073 27.1667C18.0399 27.1667 20.7923 26.0307 23.0644 23.7586C25.3374 21.4855 26.474 18.7327 26.474 15.5C26.474 12.2674 25.3374 9.51455 23.0644 7.2415C20.7923 4.96942 18.0399 3.83337 14.8073 3.83337Z" fill="#353434"/>
</svg>
