<svg width="30" height="29" viewBox="0 0 30 29" fill="none" xmlns="http://www.w3.org/2000/svg">
<path d="M15.2002 11.0472C14.5173 11.0474 13.8499 11.2502 13.2823 11.6297C12.7146 12.0093 12.2723 12.5486 12.0111 13.1796C11.75 13.8105 11.6818 14.5047 11.8152 15.1744C11.9486 15.8441 12.2775 16.4592 12.7604 16.942C13.2434 17.4247 13.8586 17.7534 14.5284 17.8866C15.1981 18.0197 15.8923 17.9512 16.5231 17.6899C17.154 17.4285 17.6931 16.9859 18.0725 16.4181C18.4518 15.8504 18.6543 15.1828 18.6543 14.5C18.6536 13.5842 18.2894 12.7062 17.6418 12.0588C16.9941 11.4114 16.116 11.0475 15.2002 11.0472ZM23.2729 8.39317C23.0972 7.94771 22.8317 7.54312 22.4931 7.2045C22.1545 6.86587 21.7499 6.60044 21.3044 6.42466C19.9451 5.88804 16.7085 6.00844 15.2002 6.00844C13.6919 6.00844 10.4586 5.8835 9.09531 6.42466C8.64985 6.60044 8.24526 6.86587 7.90663 7.2045C7.56801 7.54312 7.30258 7.94771 7.1268 8.39317C6.59082 9.75254 6.71057 12.9924 6.71057 14.4994C6.71057 16.0063 6.59082 19.2423 7.12939 20.6062C7.30517 21.0516 7.5706 21.4562 7.90922 21.7949C8.24785 22.1335 8.65244 22.3989 9.0979 22.5747C10.4573 23.1113 13.6939 22.9909 15.2028 22.9909C16.7117 22.9909 19.9438 23.1158 21.307 22.5747C21.7525 22.3989 22.1571 22.1335 22.4957 21.7949C22.8343 21.4562 23.0998 21.0516 23.2755 20.6062C23.816 19.2468 23.6918 16.007 23.6918 14.5C23.6918 12.993 23.816 9.75772 23.2755 8.39382L23.2729 8.39317ZM15.2002 19.808C14.1504 19.808 13.1241 19.4967 12.2512 18.9135C11.3783 18.3302 10.698 17.5012 10.2962 16.5313C9.89446 15.5614 9.78934 14.4941 9.99415 13.4645C10.199 12.4348 10.7045 11.489 11.4468 10.7467C12.1892 10.0043 13.135 9.49877 14.1646 9.29396C15.1943 9.08914 16.2616 9.19426 17.2315 9.59601C18.2014 9.99777 19.0304 10.6781 19.6137 11.551C20.1969 12.4239 20.5082 13.4502 20.5082 14.5C20.5091 15.1973 20.3724 15.8879 20.1059 16.5323C19.8395 17.1767 19.4485 17.7622 18.9554 18.2552C18.4624 18.7483 17.8769 19.1393 17.2325 19.4057C16.5881 19.6722 15.8975 19.8089 15.2002 19.808ZM20.727 10.2083C20.482 10.2084 20.2423 10.1358 20.0385 9.99977C19.8347 9.86371 19.6758 9.67025 19.5819 9.44387C19.488 9.21749 19.4634 8.96835 19.5111 8.72797C19.5589 8.48759 19.6768 8.26677 19.8501 8.09343C20.0233 7.92009 20.2441 7.80202 20.4844 7.75417C20.7248 7.70631 20.9739 7.73081 21.2004 7.82456C21.4268 7.91832 21.6203 8.07712 21.7565 8.28088C21.8927 8.48464 21.9654 8.72421 21.9654 8.96929C21.966 9.13203 21.9346 9.29331 21.8728 9.44387C21.811 9.59443 21.7201 9.73131 21.6053 9.84666C21.4905 9.96201 21.354 10.0536 21.2038 10.1161C21.0535 10.1786 20.8924 10.2108 20.7296 10.2108L20.727 10.2083ZM26.5931 0H3.80734C2.98327 0 2.19296 0.327359 1.61026 0.910061C1.02755 1.49276 0.700195 2.28308 0.700195 3.10714L0.700195 25.8929C0.700195 26.7169 1.02755 27.5072 1.61026 28.0899C2.19296 28.6726 2.98327 29 3.80734 29H26.5931C27.4171 29 28.2074 28.6726 28.7901 28.0899C29.3728 27.5072 29.7002 26.7169 29.7002 25.8929V3.10714C29.7002 2.28308 29.3728 1.49276 28.7901 0.910061C28.2074 0.327359 27.4171 0 26.5931 0ZM25.4848 18.7723C25.4013 20.4314 25.0226 21.9015 23.8115 23.1094C22.6004 24.3173 21.1316 24.7037 19.4745 24.7827C17.7649 24.8792 12.6394 24.8792 10.9298 24.7827C9.27073 24.6992 7.80584 24.3199 6.59276 23.1094C5.37968 21.8989 4.99841 20.4282 4.91944 18.7723C4.82299 17.0621 4.82299 11.936 4.91944 10.2277C5.00294 8.56859 5.37709 7.09853 6.59276 5.89062C7.80843 4.68272 9.2772 4.3008 10.9298 4.22183C12.6394 4.12538 17.7649 4.12538 19.4745 4.22183C21.1335 4.30534 22.603 4.68467 23.8115 5.89516C25.0201 7.10565 25.4059 8.57636 25.4848 10.2354C25.5813 11.9392 25.5813 17.0608 25.4848 18.7723Z" fill="white"/>
</svg>
