<svg width="12" height="15" viewBox="0 0 12 15" fill="none" xmlns="http://www.w3.org/2000/svg">
<path d="M1.2 14.4C1.2 14.4 0 14.4 0 13.2C0 12 1.2 8.4 6 8.4C10.8 8.4 12 12 12 13.2C12 14.4 10.8 14.4 10.8 14.4H1.2ZM6 7.2C6.95478 7.2 7.87045 6.82071 8.54559 6.14558C9.22072 5.47045 9.6 4.55478 9.6 3.6C9.6 2.64522 9.22072 1.72955 8.54559 1.05442C7.87045 0.379285 6.95478 0 6 0C5.04522 0 4.12955 0.379285 3.45442 1.05442C2.77928 1.72955 2.4 2.64522 2.4 3.6C2.4 4.55478 2.77928 5.47045 3.45442 6.14558C4.12955 6.82071 5.04522 7.2 6 7.2Z" fill="#270F33"/>
</svg>
